#!OML:ASF H:\MichaelJackson\Top Level 1\Subject 1\Session 1\male.ASF
:FULLY-SPECIFIED
:DEGREES
170
root 6.50476 16.0806 -25.6612 3.78079 29.1988 1.44859
lowerback 1.2943 -4.65346 -1.22732
upperback 0.0467736 -6.23566 -2.58681
thorax -0.832298 -3.115 -1.83543
lowerneck -9.35685 -7.49989 -1.47966
upperneck 1.83391 -10.0809 5.29558
head 2.58786 -4.85884 1.42422
rclavicle -9.43233e-014 -2.62396e-014
rhumerus -48.3175 -12.3474 -80.9947
rradius 88.8174
rwrist -3.1885
rhand -43.6629 -57.1763
rfingers 7.12502
rthumb -16.4967 -446.495
lclavicle -9.43233e-014 -2.62396e-014
lhumerus -50.1862 -41.7187 115.883
lradius 52.2643
lwrist 15.4888
lhand 37.253 29.032
lfingers 7.12502
lthumb 60.0817 42.7263
rfemur -19.8257 -3.04457 -5.29613
rtibia 58.2057
rfoot 7.50311 -26.3384
rtoes 42.3761
lfemur -26.3005 31.6709 -16.4776
ltibia 42.7379
lfoot -8.84555 10.0031
ltoes 6.52983
171
root 6.44574 16.0738 -25.6393 3.83737 28.4061 1.43569
lowerback 0.991147 -4.28233 -1.02777
upperback 0.0232792 -5.73223 -2.86408
thorax -0.722834 -2.86524 -2.2624
lowerneck -9.3481 -7.55493 -1.2005
upperneck 2.02297 -10.1971 5.31197
head 2.63792 -4.91003 1.37279
rclavicle 2.52953e-014 2.3059e-014
rhumerus -48.458 -9.62009 -82.4725
rradius 88.8538
rwrist -2.52846
rhand -43.1787 -57.4667
rfingers 7.12502
rthumb -16.0304 -446.823
lclavicle 2.52953e-014 2.3059e-014
lhumerus -50.7821 -42.0792 116.189
lradius 52.1921
lwrist 15.4328
lhand 37.5477 29.2701
lfingers 7.12502
lthumb 60.3331 42.6959
rfemur -18.7395 -3.07061 -5.41685
rtibia 55.3727
rfoot 5.74225 -27.0019
rtoes 42.8088
lfemur -26.0373 30.8048 -15.1329
ltibia 43.1845
lfoot -10.1276 8.43204
ltoes -0.780104
172
root 6.38315 16.0724 -25.6158 3.9141 27.6219 1.38896
lowerback 0.66972 -3.93587 -0.822559
upperback -0.00478565 -5.26164 -3.14984
thorax -0.6019 -2.63151 -2.7
lowerneck -9.38643 -7.5855 -0.885284
upperneck 2.21323 -10.2861 5.34473
head 2.69491 -4.94552 1.3205
rclavicle 1.34677e-014 1.35174e-014
rhumerus -48.8497 -6.71304 -84.0164
rradius 89.2782
rwrist -2.21692
rhand -41.7016 -54.1695
rfingers 7.12502
rthumb -14.6077 -443.635
lclavicle 1.34677e-014 1.35174e-014
lhumerus -51.3317 -42.4259 116.38
lradius 52.093
lwrist 15.2098
lhand 37.957 29.2119
lfingers 7.12502
lthumb 60.6811 42.2568
rfemur -17.8043 -3.35719 -5.45658
rtibia 52.8355
rfoot 3.40169 -27.6067
rtoes 43.3913
lfemur -25.6301 29.5407 -13.5287
ltibia 43.3599
lfoot -11.6157 6.28922
ltoes -7.79818
173
root 6.31711 16.0764 -25.5911 4.01735 26.8221 1.32515
lowerback 0.332766 -3.61452 -0.624153
upperback -0.0308762 -4.82443 -3.44281
thorax -0.463723 -2.41391 -3.14013
lowerneck -9.47205 -7.58394 -0.53317
upperneck 2.36826 -10.336 5.38387
head 2.7455 -4.9603 1.26536
rclavicle 8.24956e-015 -4.77083e-015
rhumerus -49.4445 -3.70566 -85.587
rradius 90.0731
rwrist -2.01594
rhand -38.9103 -48.1433
rfingers 7.12502
rthumb -11.9171 -437.784
lclavicle 8.24956e-015 -4.77083e-015
lhumerus -51.8114 -42.7212 116.428
lradius 52.0019
lwrist 14.9238
lhand 38.4122 28.9453
lfingers 7.12502
lthumb 61.0664 41.5552
rfemur -17.0255 -3.80711 -5.44099
rtibia 50.6068
rfoot 0.663699 -27.9378
rtoes 43.8226
lfemur -25.0606 27.8786 -11.706
ltibia 43.1906
lfoot -13.2187 3.49534
ltoes -13.596
174
root 6.24762 16.0843 -25.5654 4.15142 25.9779 1.26552
lowerback -0.0169308 -3.31888 -0.451419
upperback -0.0491823 -4.42114 -3.74079
thorax -0.303185 -2.21244 -3.5701
lowerneck -9.60468 -7.54105 -0.148476
upperneck 2.46502 -10.3324 5.41885
head 2.7811 -4.94835 1.20601
rclavicle -2.34069e-014 7.95139e-015
rhumerus -50.1847 -0.649315 -87.1383
rradius 91.206
rwrist -1.80366
rhand -34.5237 -40.776
rfingers 7.12502
rthumb -7.6851 -430.616
lclavicle -2.34069e-014 7.95139e-015
lhumerus -52.2092 -42.9391 116.323
lradius 51.9498
lwrist 14.7036
lhand 38.8286 28.595
lfingers 7.12502
lthumb 61.4172 40.7961
rfemur -16.4077 -4.31246 -5.40186
rtibia 48.6829
rfoot -2.21751 -27.8648
rtoes 43.8926
lfemur -24.3093 25.8409 -9.72267
ltibia 42.6174
lfoot -14.7413 -0.0254318
ltoes -17.3055
175
root 6.1748 16.0935 -25.5391 4.31907 25.0645 1.23308
lowerback -0.376484 -3.05046 -0.325873
upperback -0.0567798 -4.05331 -4.04029
thorax -0.118518 -2.02771 -3.97416
lowerneck -9.78414 -7.44858 0.257953
upperneck 2.49803 -10.2627 5.44007
head 2.79979 -4.9042 1.14212
rclavicle -4.94477e-014 7.95139e-015
rhumerus -51.0197 2.43874 -88.6224
rradius 92.641
rwrist -1.57199
rhand -28.5314 -33.452
rfingers 7.12502
rthumb -1.89917 -423.423
lclavicle -4.94477e-014 7.95139e-015
lhumerus -52.5243 -43.0669 116.077
lradius 51.9585
lwrist 14.6773
lhand 39.1248 28.2991
lfingers 7.12502
lthumb 61.6658 40.203
rfemur -15.9531 -4.77871 -5.37431
rtibia 47.0487
rfoot -5.01839 -27.3587
rtoes 43.5307
lfemur -23.3607 23.4587 -7.65034
ltibia 41.604
lfoot -15.8323 -4.30894
ltoes -18.0656
176
root 6.099 16.1007 -25.5124 4.5198 24.0668 1.24765
lowerback -0.742149 -2.81182 -0.264773
upperback -0.0552267 -3.72373 -4.33727
thorax 0.086104 -1.86111 -4.33813
lowerneck -10.006 -7.30092 0.668326
upperneck 2.47963 -10.118 5.44186
head 2.80591 -4.82395 1.07534
rclavicle 9.73548e-014 3.18055e-015
rhumerus -51.9208 5.56722 -89.994
rradius 94.345
rwrist -1.37538
rhand -21.2443 -27.0285
rfingers 7.12502
rthumb 5.13851 -416.946
lclavicle 9.73548e-014 3.18055e-015
lhumerus -52.7683 -43.1044 115.721
lradius 52.0365
lwrist 14.9465
lhand 39.2376 28.1816
lfingers 7.12502
lthumb 61.7602 39.9709
rfemur -15.6585 -5.14288 -5.39146
rtibia 45.6839
rfoot -7.60791 -26.4549
rtoes 42.8013
lfemur -22.207 20.772 -5.56753
ltibia 40.1424
lfoot -15.9905 -9.24353
ltoes -14.7442
177
root 6.02104 16.1025 -25.4859 4.74882 22.9848 1.32304
lowerback -1.10835 -2.60626 -0.278881
upperback -0.0485382 -3.43622 -4.62668
thorax 0.302226 -1.71484 -4.65037
lowerneck -10.2658 -7.09673 1.06079
upperneck 2.43545 -9.89567 5.42295
head 2.80915 -4.70623 1.00875
rclavicle -1.04958e-013 -4.45278e-014
rhumerus -52.8828 8.75544 -91.2104
rradius 96.2906
rwrist -1.2694
rhand -13.2023 -21.7955
rfingers 7.12502
rthumb 12.8982 -411.377
lclavicle -1.04958e-013 -4.45278e-014
lhumerus -52.9557 -43.0613 115.299
lradius 52.1813
lwrist 15.5618
lhand 39.1347 28.3237
lfingers 7.12502
lthumb 61.6741 40.2175
rfemur -15.5118 -5.38319 -5.48015
rtibia 44.5662
rfoot -9.94619 -25.2064
rtoes 41.854
lfemur -20.8532 17.8302 -3.55422
ltibia 38.2546
lfoot -14.7473 -14.3766
ltoes -6.06648
178
root 5.94215 16.0963 -25.4601 4.9971 21.8309 1.46348
lowerback -1.46786 -2.43667 -0.366644
upperback -0.0432357 -3.19438 -4.90317
thorax 0.517158 -1.59117 -4.90584
lowerneck -10.5562 -6.83945 1.41292
upperneck 2.39821 -9.59993 5.38592
head 2.82147 -4.55257 0.946388
rclavicle -1.66979e-014 1.59028e-015
rhumerus -53.9211 12.0196 -92.231
rradius 98.4554
rwrist -1.27094
rhand -5.06069 -17.7104
rfingers 7.12502
rthumb 20.7351 -406.623
lclavicle -1.66979e-014 1.59028e-015
lhumerus -53.1007 -42.9527 114.856
lradius 52.3815
lwrist 16.506
lhand 38.8281 28.7626
lfingers 7.12502
lthumb 61.4168 40.9642
rfemur -15.4942 -5.51691 -5.65592
rtibia 43.6729
rfoot -12.044 -23.6608
rtoes 40.8773
lfemur -19.3192 14.6955 -1.68273
ltibia 35.9896
lfoot -12.1344 -18.9006
ltoes 7.69216
179
root 5.8639 16.0808 -25.4357 5.25247 20.626 1.66489
lowerback -1.81182 -2.30514 -0.515334
upperback -0.0455538 -3.00128 -5.16171
thorax 0.717296 -1.49217 -5.10638
lowerneck -10.8685 -6.53556 1.70592
upperneck 2.39766 -9.2389 5.33585
head 2.8533 -4.36633 0.892514
rclavicle 7.44449e-014 2.54444e-014
rhumerus -55.0558 15.3635 -93.0133
rradius 100.819
rwrist -1.35861
rhand 2.53628 -14.6014
rfingers 7.12502
rthumb 28.0174 -402.53
lclavicle 7.44449e-014 2.54444e-014
lhumerus -53.211 -42.7952 114.428
lradius 52.6212
lwrist 17.6973
lhand 38.362 29.4811
lfingers 7.12502
lthumb 61.024 42.1395
rfemur -15.5818 -5.58949 -5.9228
rtibia 42.9804
rfoot -13.9406 -21.8541
rtoes 40.0505
lfemur -17.6361 11.4426 -0.0103658
ltibia 33.4187
lfoot -8.97975 -22.1413
ltoes 22.6189
